<!DOCTYPE svg PUBLIC "-//W3C//DTD SVG 20010904//EN" "http://www.w3.org/TR/2001/REC-SVG-20010904/DTD/svg10.dtd">
<svg version="1.0" xmlns="http://www.w3.org/2000/svg" width="625px" height="802px" viewBox="0 0 6250 8020" preserveAspectRatio="xMidYMid meet">
<g id="layer101" fill="#e1dfd8" stroke="none">
 <path d="M0 4010 l0 -4010 3125 0 3125 0 0 4010 0 4010 -3125 0 -3125 0 0 -4010z"/>
 </g>
<g id="layer102" fill="#e1dfe2" stroke="none">
 <path d="M4058 7661 c-16 -9 -28 -20 -28 -26 -1 -5 -9 -21 -20 -33 -22 -27 -66 -31 -137 -15 -34 8 -50 7 -80 -7 -21 -9 -51 -20 -68 -24 -16 -4 -58 -18 -92 -32 -82 -32 -105 -31 -145 10 -30 30 -40 34 -107 40 -85 7 -229 -16 -260 -43 -21 -18 -71 -113 -71 -134 0 -26 -78 -182 -100 -201 -22 -17 -22 -22 -16 -136 8 -125 5 -134 -45 -161 -17 -9 -22 -5 -35 28 -9 21 -23 46 -31 55 -20 22 -86 33 -113 18 -20 -11 -22 -17 -16 -60 4 -27 3 -51 -2 -54 -4 -3 -45 -6 -90 -7 -45 -1 -82 -6 -82 -10 0 -5 -7 -9 -15 -9 -12 0 -15 -14 -15 -64 0 -44 -5 -67 -15 -76 -8 -7 -15 -19 -15 -26 0 -23 -24 -11 -45 23 -31 49 -141 161 -162 165 -16 3 -18 -3 -15 -45 3 -30 13 -62 28 -84 13 -19 28 -49 33 -67 5 -17 23 -63 40 -103 28 -66 31 -81 31 -181 0 -95 3 -112 20 -132 26 -30 25 -34 -3 -15 -21 13 -26 13 -43 0 -10 -8 -25 -15 -33 -15 -41 -1 -105 -46 -161 -116 -33 -40 -60 -77 -60 -81 0 -4 -11 -23 -25 -43 -24 -35 -82 -68 -193 -110 -18 -7 -36 -20 -41 -28 -7 -13 -10 -12 -15 5 -5 16 -18 22 -58 27 -42 6 -58 14 -86 44 -52 56 -85 110 -78 127 3 10 2 13 -4 10 -6 -4 -27 10 -48 31 -94 95 -195 153 -244 141 -29 -8 -78 -88 -108 -177 -19 -55 -21 -77 -15 -147 6 -70 4 -88 -14 -128 -11 -26 -25 -44 -31 -40 -6 4 -10 -8 -10 -29 0 -20 -16 -68 -35 -109 -36 -76 -42 -117 -25 -178 9 -32 16 -37 67 -53 64 -20 124 -48 144 -68 8 -8 63 -38 123 -68 76 -38 118 -66 139 -92 38 -48 47 -50 124 -37 l65 11 -5 37 c-8 52 -14 72 -31 112 -8 20 -18 60 -21 90 -8 59 -27 124 -51 170 -21 42 -22 123 -1 144 10 9 22 26 29 38 13 25 32 41 97 79 50 30 61 33 61 18 0 -5 -17 -17 -37 -27 -20 -9 -56 -36 -80 -58 -24 -23 -45 -40 -47 -37 -9 8 -27 -79 -21 -98 3 -10 8 -28 10 -40 2 -12 9 -28 15 -34 5 -7 7 -16 3 -19 -3 -4 -1 -7 5 -7 9 0 25 -59 35 -130 4 -30 44 -160 65 -212 22 -53 51 -62 175 -54 115 7 269 24 307 33 14 3 49 16 78 29 50 22 52 24 52 62 0 48 -39 97 -118 149 -29 20 -72 60 -94 90 -22 30 -46 57 -54 60 -8 3 -12 9 -9 13 3 4 -2 27 -11 51 -17 49 -12 125 11 155 11 15 12 7 8 -53 -6 -81 7 -130 46 -176 15 -18 35 -44 44 -59 9 -15 46 -47 81 -70 75 -50 126 -114 126 -159 l0 -31 253 6 c138 3 279 6 311 5 l59 0 -6 227 c-5 160 -10 231 -19 243 -12 14 -11 14 12 0 l25 -16 5 -236 c5 -221 6 -237 25 -251 11 -9 24 -16 29 -16 5 0 30 -10 55 -22 31 -15 40 -24 29 -26 -10 -2 -55 15 -100 37 -92 44 -113 48 -208 37 -36 -4 -81 -9 -100 -11 -19 -3 -56 -7 -82 -11 -32 -4 -48 -2 -48 5 0 20 -210 14 -272 -8 -49 -18 -224 -61 -310 -75 -21 -4 -38 -11 -38 -15 0 -5 7 -45 15 -90 23 -117 21 -194 -5 -276 -19 -60 -22 -85 -17 -175 5 -104 5 -104 -8 -45 -19 93 -14 203 12 247 20 35 21 43 12 135 -6 54 -10 115 -10 136 0 20 -4 37 -9 37 -5 0 -12 9 -15 20 -6 18 -15 20 -96 20 -66 0 -96 4 -114 16 -31 20 -128 15 -151 -7 -13 -14 -12 -21 5 -60 24 -55 34 -144 23 -197 -8 -35 -4 -87 14 -182 15 -83 14 -145 -5 -262 -23 -142 -26 -182 -11 -173 6 3 10 1 10 -4 0 -6 -8 -11 -18 -11 -12 0 -26 -17 -41 -47 -39 -82 -75 -149 -96 -179 -41 -59 -330 -336 -375 -359 -19 -10 -48 -24 -63 -32 -15 -8 -42 -19 -60 -25 -43 -13 -257 -37 -332 -38 -75 0 -146 -19 -177 -45 -13 -11 -35 -28 -51 -38 -42 -27 -87 -95 -87 -132 0 -65 71 -182 108 -178 27 3 29 -13 2 -27 -19 -10 -45 -78 -57 -152 -5 -32 -3 -38 12 -38 15 0 64 -18 105 -39 8 -5 18 -30 23 -57 21 -141 29 -169 58 -204 40 -47 108 -118 118 -122 4 -2 22 -25 41 -53 36 -53 129 -163 195 -229 22 -23 53 -57 68 -78 20 -28 36 -38 67 -43 42 -7 61 -26 75 -75 4 -14 11 -27 14 -30 4 -3 29 -43 55 -90 49 -85 96 -137 171 -186 27 -18 47 -41 59 -70 10 -24 31 -60 47 -80 17 -21 29 -49 29 -65 0 -28 30 -69 49 -69 5 0 19 14 31 30 12 17 26 30 31 30 5 0 32 11 61 25 59 28 71 30 90 12 43 -40 43 -40 132 -11 56 18 89 25 96 18 5 -5 21 -41 35 -79 21 -58 24 -81 19 -130 -6 -58 -5 -63 27 -104 52 -68 75 -80 169 -92 88 -11 117 -23 162 -71 19 -21 35 -28 63 -28 83 0 127 -46 136 -141 5 -61 10 -74 38 -103 18 -18 44 -40 59 -47 15 -8 32 -20 37 -27 8 -10 17 -11 38 -3 35 14 52 6 67 -30 7 -16 16 -29 21 -29 5 0 2 -16 -6 -36 -19 -47 -19 -83 0 -91 9 -3 29 -32 46 -64 25 -51 37 -63 81 -84 56 -27 110 -32 126 -12 5 6 15 32 22 57 6 25 17 54 25 65 7 12 18 45 24 75 15 68 24 81 81 110 62 31 144 119 128 137 -8 10 5 8 43 -7 39 -15 66 -19 97 -14 25 4 54 1 71 -6 38 -15 72 0 64 30 -3 11 2 35 11 54 26 55 19 93 -26 143 -18 19 -19 25 -7 57 11 31 11 38 -4 54 -21 23 -13 101 15 147 33 55 25 77 -62 172 -73 80 -80 90 -80 129 0 66 21 84 113 94 56 7 87 16 114 34 26 18 51 26 80 26 41 0 42 1 48 38 4 20 11 48 16 61 14 35 28 111 20 111 -8 0 -51 86 -51 102 0 14 27 35 68 54 17 8 32 19 32 26 0 6 13 40 30 75 17 34 30 71 30 81 0 26 53 106 85 128 117 83 181 153 154 170 -14 9 -5 69 16 100 8 13 24 24 35 24 30 0 25 41 -7 72 -36 33 -66 48 -96 48 -26 0 -47 33 -47 73 0 12 -11 40 -25 62 -14 22 -36 65 -50 95 -51 112 -43 105 -120 106 -109 1 -158 11 -175 37 -31 47 -70 130 -65 135 3 3 5 1 5 -4 0 -5 12 -22 26 -39 14 -16 28 -42 31 -57 6 -29 7 -29 121 -49 44 -7 76 -9 80 -3 5 5 16 34 25 65 9 31 26 64 37 74 25 22 154 65 197 65 19 0 32 5 30 11 -2 12 84 47 121 48 12 1 22 5 22 10 0 5 21 16 46 25 25 8 61 29 80 46 20 17 40 27 46 24 7 -4 8 -2 4 4 -4 6 10 26 31 44 21 18 55 50 76 70 27 27 47 38 68 38 36 0 44 16 31 63 -8 28 -6 45 14 93 13 31 28 60 34 64 7 4 11 9 10 11 -1 2 3 17 9 32 16 41 -9 132 -46 168 -48 46 -52 55 -60 129 -8 74 -8 75 -63 100 -10 5 -16 25 -18 66 -3 70 -16 99 -51 114 -16 6 -33 26 -43 52 -16 37 -20 40 -48 35 -30 -6 -80 9 -80 24 0 22 -108 107 -145 115 -5 1 -37 9 -70 18 -32 9 -77 16 -100 16 -22 1 -58 7 -80 15 -22 8 -41 15 -42 15 -2 0 -3 -7 -3 -16 0 -14 -2 -14 -17 1 -23 24 -2 34 50 24 23 -5 82 -13 130 -19 49 -5 94 -16 101 -23 8 -7 32 -19 55 -27 22 -7 41 -17 41 -22 0 -4 6 -8 13 -8 16 0 57 -42 57 -58 0 -21 41 -34 85 -27 29 4 62 20 97 47 57 44 128 142 128 177 0 18 -3 19 -26 11 -47 -18 -54 -14 -54 35 0 25 -4 45 -9 45 -5 0 -30 19 -55 43 -49 46 -59 83 -32 122 7 11 17 35 20 52 4 18 12 35 17 39 5 3 16 21 24 40 8 19 19 34 24 34 6 0 11 6 11 14 0 8 31 41 69 74 52 45 79 61 111 66 24 4 56 18 72 31 21 18 42 25 70 25 39 0 88 20 225 95 35 18 70 40 79 49 8 9 19 16 24 16 5 0 20 10 32 23 17 17 44 27 95 35 108 18 170 16 203 -8 64 -46 106 -57 165 -47 l55 10 0 64 c0 57 -3 67 -27 89 -26 23 -33 24 -103 19 -41 -3 -98 -10 -126 -16 -69 -15 -133 -4 -186 31 -24 16 -48 30 -54 30 -5 0 -23 -13 -39 -30 -28 -29 -31 -30 -128 -30 -77 0 -109 -4 -147 -21 -65 -28 -91 -23 -112 24 -54 115 -50 110 -128 148 -72 36 -77 37 -130 27 -30 -5 -78 -18 -105 -29 -28 -10 -63 -19 -79 -19 -16 0 -53 -8 -82 -17 -49 -15 -55 -15 -71 -1 -10 9 -30 19 -45 22 -16 3 -39 8 -52 11 -18 4 -27 16 -37 51 -8 25 -20 51 -28 57 -8 7 -55 13 -115 13 -127 2 -126 2 -126 14 0 6 17 10 38 10 59 0 64 8 43 66 -17 43 -25 113 -22 192 1 14 7 22 18 22 9 0 36 20 60 45 34 36 43 52 43 82 0 38 -19 115 -31 123 -4 3 -10 22 -14 43 -6 30 -4 37 9 37 11 0 16 9 16 28 0 18 10 36 30 54 37 32 38 59 4 93 -24 24 -25 30 -23 131 1 57 -1 108 -5 111 -13 14 -5 51 17 69 54 48 139 81 226 87 68 4 96 12 150 39 118 59 140 78 141 121 l0 37 -44 0 c-24 0 -57 7 -72 15 -16 8 -38 15 -49 15 -11 0 -31 9 -45 20 -14 11 -29 20 -33 20 -5 0 -23 10 -40 23 -18 12 -59 30 -92 40 -182 55 -228 62 -267 38z m-758 -1391 c50 -32 90 -70 73 -70 -6 0 -22 11 -37 25 -44 41 -69 42 -105 3 -23 -24 -31 -28 -31 -16 0 9 4 20 10 23 5 3 15 16 21 27 11 20 9 21 -22 14 -18 -3 -41 -14 -51 -23 -10 -9 -18 -13 -18 -9 0 13 28 36 44 36 9 0 16 5 16 10 0 20 54 9 100 -20z m-525 -5 c30 -13 35 -19 22 -22 -10 -3 -28 3 -39 13 -12 12 -34 18 -61 18 -48 -1 -158 -14 -169 -21 -4 -2 -16 -23 -27 -46 -20 -43 -41 -70 -75 -97 -13 -10 -11 -3 8 24 32 47 32 63 4 88 l-23 20 32 -7 c25 -5 40 -2 61 13 15 11 43 25 62 31 50 15 158 8 205 -14z m163 -11 c12 -8 22 -20 22 -25 0 -6 -9 -4 -21 4 -13 9 -36 13 -62 11 l-42 -4 30 14 c39 19 46 19 73 0z m150 -60 c-47 -44 -48 -45 -78 -29 -42 22 -37 37 8 21 36 -13 38 -12 72 20 19 19 37 34 40 34 3 0 -16 -21 -42 -46z m366 -57 c6 3 5 0 -2 -8 -11 -12 -17 -9 -38 16 -13 17 -24 34 -24 39 0 6 12 -4 26 -22 15 -17 32 -29 38 -25z m266 29 l45 -14 -71 2 c-56 1 -70 4 -62 14 13 15 32 15 88 -2z m-545 -23 c-26 -47 -39 -66 -78 -118 -50 -65 -128 -148 -133 -142 -3 3 1 11 9 18 7 8 14 18 14 22 1 8 70 89 141 167 18 19 35 45 38 58 4 12 10 22 15 22 5 0 3 -12 -6 -27z m430 -31 c0 -36 -1 -38 -25 -30 -14 4 -37 10 -52 13 -16 3 -28 10 -28 16 0 6 12 9 28 8 46 -4 62 0 62 16 0 8 3 15 8 15 4 0 7 -17 7 -38z m212 32 c-3 -3 -12 -4 -19 -1 -8 3 -5 6 6 6 11 1 17 -2 13 -5z m63 -14 c11 -8 7 -9 -15 -4 -37 8 -45 14 -19 14 10 0 26 -5 34 -10z m-393 -7 c-4 -3 -10 -3 -14 0 -3 4 0 7 7 7 7 0 10 -3 7 -7z m450 -10 c-4 -3 -10 -3 -14 0 -3 4 0 7 7 7 7 0 10 -3 7 -7z m50 -9 c-3 -3 -12 -4 -19 -1 -8 3 -5 6 6 6 11 1 17 -2 13 -5z m-1577 -18 c0 -10 -60 -70 -65 -65 -6 7 45 69 56 69 5 0 9 -2 9 -4z m1296 -106 c6 0 17 -12 25 -27 8 -16 16 -30 19 -33 3 -3 12 -25 19 -50 7 -25 17 -53 22 -62 5 -10 9 -22 9 -28 0 -6 4 -16 10 -23 5 -7 22 -27 36 -45 15 -18 43 -41 62 -50 49 -24 58 -42 39 -78 -31 -57 -45 -90 -56 -129 -6 -22 -21 -52 -33 -67 -13 -14 -28 -35 -35 -45 -11 -16 21 66 63 164 8 17 14 36 14 42 0 7 7 23 16 36 19 29 10 46 -36 65 -16 7 -32 21 -35 31 -4 10 -10 19 -15 19 -9 0 -70 104 -70 119 0 21 -43 124 -59 141 -9 9 -29 32 -46 51 l-30 34 35 -32 c20 -18 41 -33 46 -33z m-1412 -22 c-23 -28 -36 -38 -48 -38 -6 0 3 14 19 30 33 35 57 41 29 8z m-54 -51 c0 -2 -14 -16 -32 -33 l-32 -29 25 32 c20 27 39 41 39 30z m690 -66 c-5 -11 -15 -23 -20 -26 -18 -11 -11 -29 25 -68 46 -50 45 -60 -2 -16 -64 58 -66 68 -27 104 32 30 38 31 24 6z m-797 -56 c-3 -9 -8 -14 -10 -11 -3 3 -2 9 2 15 9 16 15 13 8 -4z m1682 -475 c-3 -5 -14 -10 -23 -10 -15 0 -15 2 -2 10 20 13 33 13 25 0z m-70 -36 c-73 -62 -85 -75 -85 -92 0 -9 -7 -26 -15 -36 -19 -25 -19 -18 1 30 24 59 52 93 87 109 45 19 46 18 12 -11z m-1098 -141 c-4 -3 -7 0 -7 7 0 7 3 10 7 7 3 -4 3 -10 0 -14z m0 -45 c-3 -7 -5 -2 -5 12 0 14 2 19 5 13 2 -7 2 -19 0 -25z m990 -25 c1 -32 1 -65 2 -74 1 -14 117 -60 170 -68 5 0 27 -18 48 -38 21 -21 42 -38 46 -38 5 0 16 -13 25 -30 9 -16 20 -32 23 -35 4 -3 9 -16 13 -30 6 -20 3 -18 -16 10 -12 19 -33 43 -45 53 -12 10 -25 26 -28 37 -3 10 -21 24 -40 30 -19 6 -35 15 -35 19 0 11 -114 41 -195 51 -38 5 -94 12 -123 16 -68 9 -74 1 -65 -88 4 -43 2 -72 -5 -81 -6 -7 -18 -45 -27 -85 -9 -40 -20 -70 -25 -67 -10 6 3 66 25 118 11 28 15 63 13 123 -2 66 0 87 12 94 15 9 60 8 148 -5 l52 -8 0 36 c0 34 -2 36 -37 42 -58 10 -62 13 -17 14 43 1 64 15 64 43 0 10 4 18 8 18 5 0 9 -26 9 -57z m-407 37 c0 -5 8 -10 18 -11 9 0 12 -3 5 -5 -6 -3 -24 2 -40 10 -26 14 -27 15 -5 16 12 0 22 -4 22 -10z m117 -37 c51 -6 59 -8 46 -15 -14 -8 -113 13 -113 23 0 6 4 7 10 4 5 -3 31 -9 57 -12z m143 -13 c-36 -12 -70 -12 -70 0 0 6 21 10 48 9 38 -1 42 -2 22 -9z m-828 -80 c3 -17 1 -33 -4 -36 -4 -3 -8 11 -8 30 0 44 6 47 12 6z m54 -100 c49 -24 75 -56 94 -115 7 -22 16 -44 21 -49 30 -32 -37 -99 -163 -163 -16 -8 -28 -18 -28 -22 0 -10 -70 -34 -78 -26 -8 8 18 25 39 25 9 0 35 14 57 30 23 17 46 30 52 30 5 0 10 4 10 8 0 5 24 26 53 48 l52 38 -22 45 c-13 24 -23 52 -23 61 0 22 -32 54 -92 93 -16 10 -27 25 -27 35 1 16 2 16 6 0 2 -9 24 -26 49 -38z m1354 -150 c-13 -24 -57 -37 -73 -21 -8 8 -3 11 20 11 36 0 56 20 47 46 -5 17 -5 18 6 2 8 -13 8 -23 0 -38z m-712 -105 c-3 -3 -9 2 -12 12 -6 14 -5 15 5 6 7 -7 10 -15 7 -18z m32 -57 c0 -7 7 -24 16 -36 8 -12 12 -22 8 -22 -5 0 -3 -5 4 -12 16 -16 15 -121 -2 -161 -19 -46 -56 -79 -128 -115 -78 -39 -115 -71 -135 -119 -27 -66 -51 -93 -84 -93 -26 0 -29 -4 -35 -40 -4 -22 -11 -40 -17 -40 -5 0 -24 -10 -41 -23 -17 -13 -38 -27 -46 -32 -13 -8 -13 -7 -1 9 8 9 27 24 42 31 17 9 30 26 34 44 9 43 38 71 72 71 27 0 33 6 62 68 17 37 43 76 57 87 14 11 34 28 46 38 12 9 27 17 34 17 31 0 24 25 -17 62 -50 45 -46 45 35 3 52 -27 58 -29 67 -13 5 9 16 24 25 33 11 11 16 38 18 93 2 62 -2 87 -21 131 -27 63 -28 67 -8 47 8 -8 15 -21 15 -28z m-846 -76 c-6 -4 -16 -17 -23 -30 -10 -19 -10 -27 1 -39 11 -14 11 -15 -2 -11 -9 3 -16 19 -18 40 -2 28 1 37 15 41 29 7 39 7 27 -1z m-524 -86 c0 -14 4 -36 10 -50 5 -14 6 -26 1 -26 -5 0 -13 23 -18 50 -6 28 -6 50 -2 50 5 0 9 -11 9 -24z m791 -5 c47 -19 59 -30 74 -63 17 -39 18 -39 59 -33 52 8 92 23 135 52 39 27 93 30 115 7 22 -22 20 -25 -11 -17 -46 11 -78 4 -133 -28 -33 -20 -58 -27 -108 -32 -51 -5 -52 -5 -69 30 -9 19 -34 47 -56 61 -38 25 -47 27 -159 27 -129 0 -162 12 -45 17 125 5 141 4 198 -21z m-650 -153 c-6 -17 -11 -49 -11 -71 0 -31 3 -38 15 -33 9 3 26 -6 43 -26 15 -17 82 -86 150 -154 67 -68 122 -126 122 -129 0 -12 -61 37 -120 98 -33 34 -65 67 -72 72 -6 6 -34 34 -63 63 -28 28 -59 52 -68 52 -9 0 -19 4 -22 10 -11 18 -7 107 5 131 11 19 6 18 -30 -11 -50 -39 -103 -69 -143 -81 -25 -7 -27 -6 -16 7 7 9 34 27 61 40 42 21 47 27 38 44 -5 10 -10 27 -9 37 0 11 3 13 6 5 2 -7 14 -17 24 -23 16 -8 27 -4 57 22 l37 33 3 -28 c2 -15 -1 -41 -7 -58z m-464 -35 c-4 -3 -10 -3 -14 0 -3 4 0 7 7 7 7 0 10 -3 7 -7z m116 -7 c47 -9 99 -30 85 -33 -10 -3 -42 3 -72 11 -30 9 -66 16 -80 16 -14 0 -26 5 -26 11 0 10 23 8 93 -5z m1130 -415 c15 -16 27 -35 27 -42 0 -9 -4 -8 -12 3 -19 25 -79 57 -94 51 -7 -3 -47 5 -88 17 -69 21 -77 21 -99 7 -28 -18 -117 -34 -117 -20 0 5 17 10 37 11 21 2 51 9 67 17 32 17 98 20 124 6 41 -21 69 -21 93 0 l24 21 5 -21 c3 -12 17 -34 33 -50z m-395 24 c2 -1 -3 -5 -10 -8 -8 -2 -23 2 -33 10 -19 13 -18 14 10 7 17 -4 31 -8 33 -9z m470 -131 c-9 -8 -50 35 -43 46 4 7 14 1 27 -15 11 -14 18 -28 16 -31z m-1231 -19 c30 -22 33 -25 13 -20 -14 3 -39 14 -56 22 -28 14 -44 15 -130 4 -55 -6 -115 -19 -134 -29 l-35 -17 -7 -149 c-10 -211 -35 -271 -143 -341 -44 -29 -140 -25 -229 9 -37 14 -75 26 -84 26 -15 0 -63 20 -137 56 -63 31 -243 9 -268 -32 -11 -19 -67 -46 -60 -29 4 13 65 57 113 83 57 30 155 24 230 -15 14 -7 32 -13 41 -13 17 0 81 -23 111 -40 51 -28 208 -45 275 -29 30 7 60 36 89 85 25 43 27 57 38 292 5 98 19 132 56 132 9 0 21 5 27 11 12 12 152 27 215 23 21 -2 54 -14 75 -29z m1320 -19 c35 -4 85 -14 112 -22 43 -13 54 -21 85 -70 19 -31 32 -63 29 -71 -5 -12 -7 -12 -14 -1 -5 7 -9 20 -9 29 0 9 -7 19 -15 23 -8 3 -15 13 -15 23 0 29 -13 42 -50 48 -19 3 -53 10 -75 15 -22 5 -57 10 -77 10 -21 0 -38 2 -38 4 0 2 -3 13 -6 23 -4 11 -3 14 3 7 4 -6 36 -14 70 -18z m-1225 -20 c36 -8 85 -57 94 -93 4 -15 15 -37 24 -48 22 -25 82 -163 78 -177 -7 -21 -35 21 -42 62 -4 23 -21 63 -39 89 -17 25 -40 63 -49 84 -13 28 -29 43 -62 58 -42 18 -74 44 -44 35 7 -3 25 -7 40 -10z m1496 -193 c47 -35 130 -44 179 -18 33 18 34 18 63 -3 16 -12 34 -22 40 -22 15 0 80 -43 80 -53 0 -5 -6 -6 -12 -3 -7 3 -21 9 -30 12 -10 4 -18 10 -18 15 0 5 -9 9 -20 9 -26 0 -72 29 -64 41 3 5 -11 -2 -32 -16 -20 -14 -45 -25 -55 -25 -26 0 -143 41 -147 52 -2 4 -10 15 -19 23 -24 24 -3 17 35 -12z m-1222 -193 c8 0 15 -7 15 -15 1 -8 2 -21 3 -27 2 -13 -6 -38 -31 -95 -16 -37 -10 -72 18 -102 11 -12 22 -32 23 -44 7 -48 19 -67 45 -73 46 -10 48 -12 55 -40 4 -15 16 -39 27 -52 20 -26 24 -77 9 -122 -6 -17 -7 -8 -3 27 5 46 2 57 -28 106 -23 38 -46 61 -70 72 -36 17 -59 49 -59 83 0 9 -9 28 -20 42 -24 31 -25 65 -4 116 9 21 17 55 19 76 3 32 0 38 -16 38 -10 0 -27 10 -39 22 -31 33 -24 43 11 14 17 -14 37 -26 45 -26z m163 -657 c-5 -26 -7 -54 -4 -61 3 -7 0 -10 -5 -7 -6 4 -8 27 -6 53 3 26 5 53 5 60 1 7 5 11 10 8 5 -3 5 -26 0 -53z m77 -124 c6 -5 42 -24 80 -44 71 -37 109 -65 86 -65 -12 0 -62 28 -72 41 -3 3 -21 11 -41 18 -19 6 -51 25 -70 41 -22 20 -27 28 -14 23 11 -3 25 -10 31 -14z m214 -119 c8 -5 11 -10 5 -10 -5 0 -17 5 -25 10 -8 5 -10 10 -5 10 6 0 17 -5 25 -10z m118 -14 c49 -25 71 -59 86 -131 9 -39 19 -81 22 -95 6 -23 6 -24 -11 -9 -15 15 -51 147 -41 156 2 2 -15 22 -38 44 -29 29 -47 39 -63 36 -12 -2 -20 0 -17 4 8 13 31 11 62 -5z m122 -266 c0 -5 -2 -10 -4 -10 -3 0 -8 5 -11 10 -3 6 -1 10 4 10 6 0 11 -4 11 -10z m40 -50 c0 -5 -2 -10 -4 -10 -3 0 -8 5 -11 10 -3 6 -1 10 4 10 6 0 11 -4 11 -10z m33 -42 c8 -13 25 -53 38 -90 12 -38 26 -68 30 -68 5 0 13 -9 19 -21 10 -18 10 -19 -8 -10 -26 14 -34 27 -66 101 -15 36 -31 73 -37 82 -19 36 3 40 24 6z m216 -294 c11 -34 21 -72 21 -85 0 -20 -4 -17 -20 16 -11 22 -24 58 -30 81 -8 31 -18 45 -45 60 -51 27 -43 37 9 11 39 -19 46 -28 65 -83z m28 -146 c-3 -7 -5 -2 -5 12 0 14 2 19 5 13 2 -7 2 -19 0 -25z m-19 -98 c-23 -70 -19 -96 19 -135 l28 -29 -35 20 c-61 35 -75 103 -31 150 9 11 20 27 24 37 3 9 8 17 11 17 3 0 -4 -27 -16 -60z m96 -187 c3 -7 3 -13 1 -13 -9 0 -45 34 -45 42 0 12 39 -14 44 -29z m31 -55 c10 -18 19 -42 21 -53 14 -79 15 -105 5 -121 -9 -15 -10 -10 -5 23 5 35 1 52 -25 102 -17 33 -31 65 -31 71 0 21 19 9 35 -22z m102 -316 c25 -24 42 -46 39 -49 -8 -8 -56 25 -56 38 0 6 -18 29 -40 50 -22 22 -40 42 -40 46 0 7 25 -15 97 -85z"/>
 </g>
<g id="layer103" fill="#fefefe" stroke="none">
 <path d="M4053 7658 c-13 -6 -23 -17 -23 -23 0 -7 -8 -23 -18 -35 -20 -25 -69 -29 -140 -13 -34 9 -48 7 -75 -7 -17 -9 -48 -20 -67 -24 -19 -3 -62 -17 -95 -31 -33 -13 -76 -25 -95 -25 -29 0 -39 6 -58 35 l-22 35 -108 0 c-120 -1 -217 -20 -238 -47 -23 -28 -51 -85 -58 -118 -8 -36 -71 -167 -103 -213 -21 -32 -22 -41 -16 -141 l6 -108 -29 -26 c-16 -15 -32 -27 -37 -27 -4 0 -15 17 -24 38 -8 20 -22 45 -30 54 -20 22 -86 33 -113 18 -18 -10 -21 -19 -18 -63 l3 -52 -70 -7 c-141 -14 -135 -10 -135 -79 0 -61 -22 -119 -45 -119 -6 0 -19 16 -29 35 -27 49 -164 181 -177 168 -12 -12 5 -94 26 -126 7 -12 34 -73 59 -135 45 -111 46 -117 46 -222 l0 -108 31 -26 c43 -37 73 -42 98 -17 26 26 86 42 166 42 52 1 74 -4 112 -26 46 -26 48 -26 85 -9 46 21 85 12 98 -21 10 -26 57 -55 83 -51 10 1 34 18 55 37 115 109 156 107 282 -17 54 -52 75 -67 120 -78 l55 -14 37 34 c21 19 48 34 60 34 26 0 155 -25 265 -51 82 -19 139 -24 166 -13 14 5 13 12 -3 59 -16 47 -24 116 -21 193 1 14 7 22 18 22 9 0 36 20 60 45 53 56 56 93 16 190 -25 60 -25 67 -13 106 8 23 20 47 28 53 47 38 54 48 47 74 -3 14 -14 33 -24 41 -15 14 -19 37 -23 153 -5 154 -4 157 72 192 19 9 46 23 60 31 14 8 50 15 80 15 85 1 134 16 231 73 87 51 89 53 89 89 l0 38 -44 0 c-24 0 -57 7 -72 15 -16 8 -37 15 -47 15 -9 0 -48 19 -85 41 -123 76 -339 128 -399 97z"/>
 <path d="M2630 6269 c-86 -12 -117 -26 -124 -54 -9 -34 -81 -121 -235 -283 -180 -190 -181 -192 -181 -266 0 -40 7 -75 20 -101 32 -65 101 -143 162 -183 68 -44 118 -109 118 -153 l0 -31 253 7 c138 3 279 6 311 6 l59 0 -6 221 -6 220 -61 63 c-33 35 -60 71 -60 80 0 10 18 34 39 54 22 20 55 57 73 82 18 26 59 78 91 115 33 38 66 85 75 104 9 19 31 56 50 83 26 36 30 47 17 47 -26 0 -67 -26 -105 -65 -71 -74 -91 -75 -166 -3 l-42 40 -31 -17 c-35 -18 -72 -11 -139 27 -18 10 -36 17 -40 17 -4 -1 -36 -5 -72 -10z"/>
 <path d="M2320 6244 c-25 -13 -53 -24 -63 -24 -26 0 -94 -73 -160 -172 -52 -77 -64 -89 -120 -115 -34 -17 -78 -35 -97 -42 -24 -7 -39 -20 -46 -39 -7 -17 -28 -36 -57 -51 -67 -34 -120 -83 -147 -134 l-24 -45 32 -83 c29 -80 36 -105 47 -174 7 -43 70 -221 84 -239 21 -25 71 -29 223 -16 164 13 258 30 323 59 42 19 45 22 45 59 0 32 -7 47 -42 84 -24 24 -63 58 -87 74 -24 16 -62 53 -83 82 -22 29 -46 56 -54 59 -8 3 -12 9 -9 13 3 4 -2 27 -11 51 -10 30 -13 59 -9 92 8 58 39 98 202 270 135 141 193 212 193 235 0 10 -22 31 -48 48 l-47 31 -45 -23z"/>
 <path d="M3226 6223 c-20 -21 -36 -45 -36 -53 0 -33 -91 -153 -225 -299 -75 -82 -75 -78 9 -161 l56 -54 0 -202 c0 -257 0 -259 59 -288 162 -83 248 -106 392 -106 120 0 139 6 139 44 0 72 72 172 144 202 36 15 45 26 73 88 17 39 37 89 44 111 6 22 20 55 31 72 22 37 19 47 -25 69 -17 9 -39 26 -49 38 -23 27 -78 123 -78 135 0 6 -9 34 -20 64 -25 67 -154 207 -191 207 -13 1 -35 7 -49 15 -14 8 -37 14 -52 15 -20 0 -32 8 -43 30 -17 33 -109 110 -130 110 -8 0 -30 -17 -49 -37z"/>
 <path d="M1261 6213 c-53 -64 -73 -133 -81 -273 -6 -116 -10 -132 -48 -220 -22 -52 -49 -113 -61 -135 -23 -43 -26 -90 -11 -145 9 -33 15 -37 92 -63 46 -16 90 -35 98 -42 8 -7 67 -41 130 -75 72 -39 131 -78 158 -106 42 -44 43 -45 90 -38 101 15 106 23 71 120 -12 32 -27 91 -33 129 -7 39 -18 83 -24 98 -7 16 -12 33 -12 38 0 5 -9 28 -21 51 -27 53 -21 103 17 155 41 54 72 79 132 108 42 21 52 30 52 50 0 21 -5 25 -29 25 -67 0 -116 40 -199 161 -65 95 -204 199 -269 199 -13 0 -34 -15 -52 -37z"/>
 <path d="M3623 6145 c-13 -9 -23 -25 -23 -35 0 -11 33 -54 74 -95 58 -59 78 -88 91 -128 39 -124 107 -227 149 -227 17 0 46 -33 46 -52 0 -8 -9 -27 -21 -42 -12 -15 -29 -52 -39 -84 -30 -97 -79 -172 -130 -199 -65 -34 -85 -58 -108 -121 -22 -61 -26 -84 -24 -148 l2 -40 89 -28 c121 -37 184 -87 237 -188 21 -41 29 -48 54 -48 39 0 48 22 26 66 -9 19 -16 39 -16 44 0 13 42 13 77 -1 15 -6 67 -15 116 -20 111 -11 207 -57 263 -124 45 -53 64 -56 138 -19 65 32 109 75 146 141 38 67 39 86 4 73 -45 -18 -54 -13 -54 28 0 34 -6 44 -55 86 -43 37 -55 54 -55 76 0 44 56 168 106 235 44 59 132 126 183 139 26 7 61 22 76 34 17 14 42 22 65 22 21 0 62 11 91 25 71 33 215 119 259 154 25 20 55 31 107 39 115 19 168 16 211 -13 68 -44 102 -54 152 -41 l45 11 9 58 c8 56 7 60 -20 88 -28 30 -31 30 -99 24 -38 -3 -98 -11 -132 -17 -77 -14 -159 1 -198 38 -34 32 -50 30 -77 -6 -22 -30 -22 -30 -122 -30 -68 -1 -114 -6 -141 -17 -22 -8 -56 -16 -75 -17 -31 -1 -37 3 -52 37 -10 20 -26 54 -35 74 -15 30 -33 44 -93 75 -41 21 -82 36 -91 33 -10 -3 -43 -10 -74 -15 -32 -5 -68 -16 -81 -25 -13 -8 -41 -15 -62 -15 -21 0 -60 -7 -87 -16 -43 -15 -50 -15 -74 -2 -14 9 -45 19 -68 23 -48 8 -51 11 -73 75 -13 40 -19 45 -55 53 -22 5 -67 6 -100 4 -44 -4 -101 4 -215 28 -214 46 -240 49 -267 30z"/>
 <path d="M2762 5175 c-57 -7 -105 -15 -108 -18 -6 -6 13 -226 22 -250 3 -10 27 -28 51 -39 35 -16 49 -31 64 -65 10 -23 28 -63 38 -87 l19 -43 -36 -36 c-46 -43 -160 -115 -226 -142 -53 -22 -73 -43 -63 -68 5 -13 22 -15 117 -11 112 5 118 4 207 -38 11 -6 29 -28 39 -50 17 -39 17 -39 63 -32 25 4 79 24 119 45 72 38 74 38 110 23 20 -8 43 -21 52 -28 8 -7 36 -26 63 -41 39 -23 50 -25 63 -14 32 27 48 73 47 143 0 56 -6 80 -33 136 l-33 67 33 98 c29 86 32 106 26 166 -5 61 -4 71 14 89 24 24 41 25 106 5 80 -24 94 -21 94 20 0 40 17 36 -175 39 -115 2 -124 4 -230 45 -60 23 -130 54 -155 68 -54 32 -137 37 -288 18z"/>
 <path d="M2340 5155 c-36 -13 -124 -36 -195 -50 -72 -15 -131 -27 -132 -29 -1 -1 5 -40 13 -86 23 -131 22 -215 -5 -285 -20 -52 -22 -71 -16 -145 7 -96 29 -222 46 -262 17 -40 37 -42 78 -6 l36 32 3 -28 c2 -15 -1 -41 -7 -58 -17 -47 -14 -111 3 -105 9 4 49 -30 108 -91 135 -139 168 -170 217 -204 39 -28 49 -30 100 -25 31 3 70 12 86 21 37 19 56 20 98 3 74 -31 83 -30 124 14 21 23 50 47 65 55 16 8 37 35 50 62 20 40 28 48 57 52 31 4 38 12 67 71 34 68 73 109 131 137 19 9 32 20 30 26 -5 15 -109 84 -134 89 -12 2 -55 -11 -95 -29 -40 -18 -98 -35 -128 -39 l-55 -7 -13 37 c-9 23 -28 45 -55 63 -40 26 -48 27 -175 27 -138 1 -152 5 -152 45 0 26 13 36 87 73 70 34 161 93 216 139 l27 23 -28 70 c-22 53 -37 75 -63 92 -73 46 -76 51 -83 159 -4 54 -9 118 -13 142 l-5 42 -112 -1 c-90 -1 -124 -5 -176 -24z"/>
 <path d="M1663 5103 c-49 -6 -56 -23 -34 -74 25 -56 36 -154 23 -200 -7 -27 -4 -66 11 -155 21 -126 18 -196 -15 -376 -6 -37 -9 -70 -6 -73 3 -3 47 -10 97 -15 51 -6 114 -19 140 -31 l48 -20 66 36 65 36 -23 57 c-28 70 -59 286 -52 357 3 29 12 67 21 83 26 50 17 244 -15 325 -11 27 -12 27 -103 27 -66 0 -98 4 -112 15 -18 14 -46 16 -111 8z"/>
 <path d="M3417 4959 c-2 -8 -2 -41 0 -74 4 -49 0 -79 -25 -159 l-31 -99 31 -66 c65 -137 46 -260 -51 -319 -26 -16 -57 -33 -70 -37 -42 -13 -92 -68 -121 -131 -25 -57 -32 -64 -68 -73 -40 -11 -52 -26 -52 -62 0 -11 -13 -25 -32 -35 -41 -20 -88 -64 -88 -80 0 -7 10 -20 21 -28 12 -8 33 -32 48 -54 59 -89 71 -97 151 -110 145 -23 144 -22 190 -117 36 -73 46 -86 83 -104 57 -27 120 -27 159 0 l29 21 28 -26 c15 -14 34 -26 42 -26 18 0 88 -47 111 -75 10 -11 30 -44 45 -73 17 -32 36 -54 48 -56 11 -3 46 -9 77 -16 74 -15 89 -6 111 63 9 30 25 62 36 71 10 9 88 41 172 71 281 98 289 102 355 163 154 143 166 152 196 152 35 0 43 18 28 64 -10 32 -8 42 33 131 45 96 45 97 32 151 -9 40 -22 63 -51 91 -34 34 -40 47 -54 122 -15 82 -17 85 -48 93 -34 9 -35 12 -32 98 1 46 -15 71 -64 97 -11 6 -24 26 -30 44 -10 32 -14 34 -58 34 -45 1 -51 5 -105 61 -68 70 -136 99 -270 114 -46 5 -92 14 -104 20 -26 15 -34 8 -20 -18 25 -47 -1 -102 -49 -102 -18 0 -61 43 -80 78 -18 36 -81 102 -120 127 -65 40 -138 58 -351 82 -34 4 -48 2 -52 -8z"/>
 <path d="M2110 4239 c-50 -42 -144 -89 -181 -89 -17 0 -61 9 -97 19 -37 11 -99 22 -138 25 l-70 5 -36 -77 c-59 -126 -109 -189 -272 -345 -229 -218 -260 -231 -624 -257 -92 -6 -134 -14 -167 -30 -25 -12 -45 -26 -45 -30 0 -5 -9 -12 -20 -15 -35 -11 -100 -102 -100 -139 0 -47 75 -186 100 -186 4 0 32 20 61 44 127 104 211 119 344 62 17 -8 80 -30 140 -51 173 -60 270 -58 336 7 52 53 61 87 69 263 4 88 11 168 15 177 10 26 83 49 192 62 l98 12 70 -37 c39 -20 83 -39 99 -43 37 -9 83 -55 92 -92 4 -16 22 -46 39 -67 20 -23 39 -62 49 -101 18 -64 42 -97 88 -120 32 -16 33 -54 4 -122 -22 -54 -23 -62 -10 -92 7 -18 20 -40 29 -48 8 -9 15 -25 15 -37 0 -33 15 -50 52 -63 25 -8 40 -24 61 -63 30 -56 30 -64 17 -280 -3 -34 20 -51 169 -131 125 -68 137 -72 180 -66 43 5 49 3 88 -33 34 -32 43 -48 53 -97 19 -97 38 -144 79 -198 22 -28 51 -82 64 -119 30 -82 43 -98 112 -132 61 -31 74 -56 101 -190 l16 -82 -26 -57 c-14 -31 -26 -64 -26 -74 1 -23 40 -66 79 -87 23 -12 41 -35 66 -88 36 -76 42 -113 31 -187 -7 -45 -6 -45 53 -107 78 -80 159 -120 213 -106 27 7 45 6 70 -4 42 -18 79 -4 71 26 -3 12 2 36 11 55 26 55 19 93 -26 143 -18 19 -19 25 -7 56 11 31 10 38 -9 62 -29 36 -28 46 8 117 17 32 30 70 30 84 0 17 -24 50 -80 110 -75 79 -80 87 -80 128 0 71 24 92 112 98 58 4 81 11 112 31 27 19 52 27 82 27 42 0 43 1 49 38 4 20 13 54 21 75 20 53 18 81 -11 137 -14 27 -25 56 -25 64 0 8 21 28 48 44 40 25 51 40 79 103 17 41 34 86 37 100 8 38 61 106 103 133 21 13 58 41 82 63 43 38 44 40 46 105 1 70 13 94 52 109 33 12 28 42 -12 78 -33 29 -49 36 -99 43 -15 2 -25 21 -42 76 -12 40 -29 81 -38 91 -9 10 -28 46 -42 82 -35 86 -40 91 -83 84 -44 -7 -179 11 -199 27 -7 7 -29 42 -47 78 -34 68 -53 86 -115 110 -19 7 -46 21 -59 30 -23 16 -26 16 -57 -2 -40 -23 -95 -18 -164 15 -46 23 -90 83 -108 152 -7 25 -17 33 -62 48 -30 10 -82 21 -116 24 -61 6 -64 7 -101 56 -75 99 -97 117 -141 117 -22 0 -65 9 -95 21 l-54 21 -39 -21 c-50 -27 -131 -28 -182 -2 -20 10 -71 53 -112 95 -41 41 -81 81 -89 88 -8 7 -37 36 -65 64 -28 29 -60 53 -70 55 -34 7 -42 87 -14 142 12 23 9 22 -32 -14z"/>
 <path d="M1581 3658 c-34 -5 -80 -17 -100 -28 l-38 -19 -6 -148 c-9 -217 -36 -286 -131 -336 -62 -32 -137 -28 -281 18 -66 20 -136 45 -155 55 -65 33 -132 41 -197 24 -32 -8 -65 -20 -74 -27 -9 -7 -45 -34 -81 -60 -68 -51 -88 -87 -104 -186 l-5 -36 60 -19 c33 -10 65 -23 70 -30 5 -6 14 -48 20 -93 6 -45 17 -97 24 -115 8 -19 50 -71 94 -115 44 -45 92 -101 106 -125 14 -24 69 -90 124 -148 54 -58 110 -120 124 -139 18 -25 38 -38 69 -45 34 -8 48 -18 60 -41 105 -206 159 -278 256 -342 31 -19 48 -41 63 -78 12 -29 33 -63 46 -75 14 -13 25 -34 25 -46 0 -35 17 -71 37 -78 12 -5 25 1 43 22 22 27 126 82 153 82 6 0 27 -11 46 -25 l36 -24 75 24 c41 14 80 25 87 25 15 0 24 -17 53 -99 17 -50 21 -74 15 -117 -7 -60 7 -94 63 -147 25 -24 47 -32 138 -47 104 -18 110 -20 142 -56 27 -32 40 -38 89 -45 84 -12 115 -46 124 -139 5 -62 10 -75 38 -104 18 -18 44 -40 59 -47 15 -8 32 -20 37 -27 9 -11 16 -11 37 -1 34 15 53 7 77 -32 18 -30 19 -35 5 -67 -18 -45 -18 -81 1 -89 9 -3 29 -32 46 -64 25 -51 37 -63 81 -84 56 -27 110 -32 126 -12 5 6 15 32 22 57 6 25 18 54 25 66 7 11 18 47 24 79 12 63 20 72 96 113 27 15 55 39 62 53 7 14 24 31 38 39 32 17 32 22 -7 44 -18 11 -57 44 -86 75 -51 55 -52 57 -45 101 11 72 7 103 -20 156 -13 27 -27 61 -31 76 -4 19 -16 30 -39 37 -41 14 -83 56 -92 93 -5 20 1 45 24 91 17 35 31 70 31 78 0 15 -47 165 -59 189 -4 8 -27 25 -51 37 -24 13 -52 31 -62 40 -17 15 -59 97 -73 145 -4 12 -22 43 -40 68 -49 68 -71 118 -85 192 -11 59 -18 72 -51 103 -35 32 -43 35 -79 29 -35 -6 -53 0 -152 51 -112 57 -171 95 -195 124 -16 18 -17 103 -2 190 9 57 8 66 -9 85 -10 11 -25 36 -32 54 -8 21 -21 34 -39 38 -39 10 -61 33 -67 75 -4 21 -15 46 -25 55 -25 22 -24 82 0 153 22 62 19 77 -13 85 -28 7 -81 89 -90 138 -4 20 -21 59 -39 85 -18 27 -41 66 -51 87 -13 29 -29 43 -64 58 -26 11 -75 33 -108 49 -65 30 -88 32 -193 17z"/>
 </g>

</svg>